<svg xmlns="http://www.w3.org/2000/svg" width="600" height="116" viewBox="0 0 600 116" fill="none">
    <path
        d="M169.495 42.3169C154.859 27.1607 129.464 6.10406 122.638 0.377099C122.002 -0.143534 121.018 -0.143534 120.44 0.492795C115.985 4.88925 116.043 12.0624 120.555 16.3432C133.86 29.0697 148.091 44.6887 153.934 50.9941C163.421 61.1754 164.636 70.836 164.751 74.0755C164.751 74.7697 164.288 75.3482 163.652 75.6953C148.149 84.3146 120.787 66.4974 111.531 69.7369C102.68 72.8029 106.383 87.2649 118.762 90.5044C156.768 100.454 147.86 108.09 167.702 110.173C184.477 111.966 199.46 104.909 199.46 104.272C199.113 83.7361 187.486 60.8862 169.495 42.3169Z"
        fill="white" />
    <path
        d="M84.7474 1.99684L84.5739 2.17039C84.516 2.11254 84.516 2.05469 84.4582 1.99684C84.4582 1.99684 47.204 25.1361 29.9653 42.3748C11.3961 60.8862 0 84.4303 0 105.198C0 105.198 11.6275 112.255 31.7586 110.115C51.6005 107.974 42.634 100.396 80.698 90.4465C93.0775 87.207 96.7798 72.745 87.929 69.6791C78.442 66.3239 49.1708 84.2568 34.7667 75.1746C34.7667 75.1746 33.899 63.4893 45.5264 50.9941C49.9229 46.3085 67.3351 32.5406 82.3178 20.971C91.2842 29.8796 99.1516 37.8626 106.44 45.0358C124.084 62.4481 141.496 64.8777 144.736 61.6382L84.7474 1.99684Z"
        fill="white" />
    <path
        d="M86.2515 33.6397C85.5573 32.9456 84.8631 32.2514 84.2268 31.615C83.8218 31.2101 83.4169 30.8052 83.0698 30.4581C72.5993 38.8461 60.4512 48.5645 57.1539 51.2255C47.4354 58.9193 45.1215 65.9189 46.452 67.5965L87.3506 34.7388C87.0035 34.3339 86.6564 33.9868 86.2515 33.6397Z"
        fill="white" />
    <path
        d="M92.0941 39.4824L58.1951 66.9602C59.5256 68.6378 66.4096 68.2907 75.376 61.2911C78.2106 59.0929 87.7555 51.2255 96.6063 43.9945C95.16 42.4905 93.656 40.9864 92.0941 39.4824Z"
        fill="white" />
    <path
        d="M267.721 17.7894V57.1839H261.242V30.1688L249.209 57.126H244.755L232.665 30.1688V57.126H226.186V17.7894H233.186L247.011 48.6802L260.779 17.7894H267.721Z"
        fill="white" />
    <path
        d="M275.472 33.0612C276.803 30.6316 278.538 28.7805 280.794 27.3921C283.051 26.0616 285.538 25.3675 288.257 25.3675C290.686 25.3675 292.885 25.8302 294.678 26.8137C296.529 27.7971 297.975 28.954 299.074 30.4002V25.8881H305.611V57.126H299.074V52.4982C297.975 53.9444 296.471 55.2171 294.62 56.2005C292.711 57.1839 290.571 57.6467 288.141 57.6467C285.48 57.6467 282.993 56.9525 280.794 55.5641C278.538 54.1758 276.803 52.2668 275.472 49.7793C274.142 47.2919 273.506 44.5152 273.506 41.3335C273.506 38.2676 274.142 35.4909 275.472 33.0612ZM297.744 35.8958C296.876 34.3339 295.719 33.1191 294.273 32.2514C292.827 31.4415 291.265 30.9787 289.645 30.9787C287.968 30.9787 286.406 31.3837 285.017 32.1935C283.571 33.0034 282.414 34.2182 281.546 35.7801C280.679 37.342 280.216 39.1931 280.216 41.3914C280.216 43.5317 280.679 45.4407 281.546 47.0605C282.414 48.6802 283.629 49.895 285.075 50.7628C286.521 51.6305 288.083 52.0354 289.703 52.0354C291.381 52.0354 292.943 51.6305 294.331 50.7628C295.777 49.9529 296.934 48.7381 297.802 47.1183C298.669 45.4986 299.132 43.6474 299.132 41.4492C299.074 39.3667 298.612 37.5155 297.744 35.8958Z"
        fill="white" />
    <path
        d="M313.305 33.0612C314.636 30.6316 316.371 28.7805 318.627 27.3921C320.883 26.0616 323.371 25.3675 326.147 25.3675C328.172 25.3675 330.197 25.8302 332.164 26.698C334.13 27.5657 335.75 28.7805 336.907 30.2267V15.244H343.444V57.1839H336.907V52.4982C335.866 54.0022 334.362 55.2749 332.511 56.2583C330.659 57.2417 328.519 57.7045 326.089 57.7045C323.371 57.7045 320.883 57.0103 318.627 55.622C316.371 54.2336 314.578 52.3246 313.305 49.8372C311.975 47.3497 311.338 44.573 311.338 41.3914C311.396 38.2676 312.032 35.4909 313.305 33.0612ZM335.634 35.8958C334.767 34.3339 333.61 33.1191 332.164 32.2514C330.717 31.4415 329.155 30.9787 327.536 30.9787C325.858 30.9787 324.296 31.3837 322.908 32.1935C321.462 33.0034 320.305 34.2182 319.437 35.7801C318.569 37.342 318.106 39.1931 318.106 41.3914C318.106 43.5317 318.569 45.4407 319.437 47.0605C320.305 48.6802 321.519 49.895 322.966 50.7628C324.412 51.6305 325.974 52.0354 327.594 52.0354C329.271 52.0354 330.833 51.6305 332.221 50.7628C333.668 49.9529 334.825 48.7381 335.692 47.1183C336.56 45.4986 337.023 43.6474 337.023 41.4492C336.965 39.3667 336.502 37.5155 335.634 35.8958Z"
        fill="white" />
    <path
        d="M361.608 26.7558C363.17 25.8881 365.021 25.4253 367.219 25.4253V32.1357H365.6C363.054 32.1357 361.145 32.772 359.873 34.0447C358.542 35.3173 357.906 37.5734 357.906 40.755V57.1839H351.427V25.9459H357.906V30.4581C358.831 28.8962 360.046 27.6235 361.608 26.7558Z"
        fill="white" />
    <path
        d="M401.003 43.9945H377.111C377.285 46.482 378.211 48.5067 379.888 50.0107C381.566 51.5148 383.59 52.2668 386.02 52.2668C389.491 52.2668 391.978 50.8206 393.367 47.9282H400.366C399.441 50.8206 397.705 53.1345 395.218 54.9857C392.73 56.8368 389.664 57.7624 386.02 57.7624C383.012 57.7624 380.351 57.0682 377.979 55.7377C375.607 54.4072 373.756 52.4982 372.426 50.0686C371.095 47.639 370.401 44.8044 370.401 41.5649C370.401 38.3254 371.037 35.5487 372.368 33.0612C373.698 30.6316 375.492 28.7226 377.863 27.3921C380.235 26.0616 382.954 25.4253 386.02 25.4253C388.97 25.4253 391.573 26.0616 393.887 27.3343C396.201 28.6069 397.995 30.4002 399.267 32.772C400.54 35.0859 401.176 37.7469 401.176 40.8129C401.234 41.9699 401.176 43.0111 401.003 43.9945ZM394.466 38.7304C394.408 36.3586 393.598 34.4496 391.921 33.0034C390.243 31.5572 388.218 30.863 385.731 30.863C383.475 30.863 381.566 31.5572 380.004 33.0034C378.442 34.3918 377.459 36.3586 377.169 38.7304H394.466Z"
        fill="white" />
    <path d="M444.389 17.7894V23.0535H433.86V57.1839H427.381V23.0535H416.853V17.7894H444.389Z" fill="white" />
    <path
        d="M478.693 43.9945H454.801C454.975 46.482 455.901 48.5067 457.578 50.0107C459.256 51.5148 461.28 52.2668 463.71 52.2668C467.181 52.2668 469.668 50.8206 471.057 47.9282H478.056C477.131 50.8206 475.395 53.1345 472.908 54.9857C470.42 56.8368 467.354 57.7624 463.71 57.7624C460.702 57.7624 458.041 57.0682 455.669 55.7377C453.297 54.4072 451.446 52.4982 450.116 50.0686C448.785 47.639 448.091 44.8044 448.091 41.5649C448.091 38.3254 448.727 35.5487 450.058 33.0612C451.388 30.6316 453.182 28.7226 455.553 27.3921C457.925 26.0616 460.644 25.4253 463.71 25.4253C466.66 25.4253 469.263 26.0616 471.577 27.3343C473.891 28.6069 475.685 30.4002 476.957 32.772C478.23 35.0859 478.866 37.7469 478.866 40.8129C478.924 41.9699 478.866 43.0111 478.693 43.9945ZM472.214 38.7304C472.156 36.3586 471.346 34.4496 469.668 33.0034C467.991 31.5572 465.966 30.863 463.479 30.863C461.223 30.863 459.314 31.5572 457.752 33.0034C456.19 34.3918 455.206 36.3586 454.917 38.7304H472.214Z"
        fill="white" />
    <path
        d="M494.948 26.7558C496.51 25.8881 498.361 25.4253 500.559 25.4253V32.1357H498.939C496.394 32.1357 494.485 32.772 493.212 34.0447C491.882 35.3173 491.246 37.5734 491.246 40.755V57.1839H484.767V25.9459H491.246V30.4581C492.113 28.8962 493.386 27.6235 494.948 26.7558Z"
        fill="white" />
    <path
        d="M534.342 43.9945H510.451C510.625 46.482 511.55 48.5067 513.228 50.0107C514.906 51.5148 516.93 52.2668 519.36 52.2668C522.831 52.2668 525.318 50.8206 526.707 47.9282H533.706C532.781 50.8206 531.045 53.1345 528.558 54.9857C526.07 56.8368 523.004 57.7624 519.36 57.7624C516.352 57.7624 513.691 57.0682 511.319 55.7377C508.947 54.4072 507.096 52.4982 505.766 50.0686C504.435 47.639 503.741 44.8044 503.741 41.5649C503.741 38.3254 504.377 35.5487 505.708 33.0612C507.038 30.6316 508.831 28.7226 511.203 27.3921C513.575 26.0616 516.294 25.4253 519.36 25.4253C522.31 25.4253 524.913 26.0616 527.227 27.3343C529.541 28.6069 531.334 30.4002 532.607 32.772C533.88 35.0859 534.516 37.7469 534.516 40.8129C534.574 41.9699 534.458 43.0111 534.342 43.9945ZM527.806 38.7304C527.748 36.3586 526.938 34.4496 525.26 33.0034C523.583 31.5572 521.558 30.863 519.071 30.863C516.815 30.863 514.906 31.5572 513.344 33.0034C511.782 34.3918 510.798 36.3586 510.509 38.7304H527.806Z"
        fill="white" />
    <path
        d="M545.102 56.374C543.135 55.5063 541.631 54.2915 540.474 52.7296C539.317 51.2255 538.739 49.4901 538.681 47.5811H545.391C545.507 48.9116 546.143 50.0107 547.3 50.8785C548.457 51.7462 549.904 52.209 551.639 52.209C553.432 52.209 554.879 51.8619 555.862 51.1677C556.845 50.4735 557.366 49.5479 557.366 48.4488C557.366 47.2919 556.788 46.4242 555.688 45.8457C554.589 45.2672 552.796 44.6309 550.366 43.9945C547.995 43.3582 546.143 42.7219 544.639 42.1434C543.193 41.5649 541.863 40.6393 540.821 39.3667C539.722 38.094 539.202 36.4743 539.202 34.4496C539.202 32.772 539.664 31.268 540.648 29.8796C541.631 28.4913 543.02 27.3921 544.871 26.6401C546.722 25.8302 548.804 25.4253 551.176 25.4253C554.705 25.4253 557.597 26.3509 559.738 28.1442C561.936 29.9375 563.093 32.3671 563.209 35.4909H556.73C556.614 34.1025 556.035 33.0034 555.052 32.1357C554.011 31.3258 552.68 30.863 550.887 30.863C549.209 30.863 547.879 31.2101 546.953 31.8464C546.028 32.4828 545.565 33.3505 545.565 34.3918C545.565 35.2016 545.854 35.8958 546.491 36.4743C547.069 37.0528 547.821 37.4577 548.689 37.8048C549.557 38.1519 550.829 38.5568 552.565 39.0196C554.821 39.5981 556.672 40.2344 558.176 40.8707C559.622 41.5071 560.895 42.4326 561.936 43.6474C562.977 44.8623 563.556 46.482 563.556 48.4488C563.556 50.2421 563.093 51.804 562.11 53.1924C561.126 54.5807 559.738 55.6798 557.944 56.4897C556.151 57.2996 554.069 57.7045 551.639 57.7045C549.209 57.7045 547.011 57.2417 545.102 56.374Z"
        fill="white" />
    <path
        d="M569.861 33.0612C571.192 30.6316 572.927 28.7805 575.183 27.3921C577.439 26.0616 579.927 25.3675 582.646 25.3675C585.075 25.3675 587.273 25.8302 589.067 26.8137C590.918 27.7971 592.364 28.954 593.463 30.4002V25.8881H600V57.126H593.463V52.4982C592.364 53.9444 590.86 55.2171 589.009 56.2005C587.1 57.1839 584.96 57.6467 582.53 57.6467C579.869 57.6467 577.381 56.9525 575.183 55.5641C572.927 54.1758 571.192 52.2668 569.861 49.7793C568.531 47.2919 567.894 44.5152 567.894 41.3335C567.894 38.2676 568.531 35.4909 569.861 33.0612ZM592.133 35.8958C591.265 34.3339 590.108 33.1191 588.662 32.2514C587.216 31.4415 585.654 30.9787 584.034 30.9787C582.356 30.9787 580.794 31.3837 579.406 32.1935C577.96 33.0034 576.803 34.2182 575.935 35.7801C575.067 37.342 574.605 39.1931 574.605 41.3914C574.605 43.5317 575.067 45.4407 575.935 47.0605C576.803 48.6802 578.018 49.895 579.464 50.7628C580.91 51.6305 582.472 52.0354 584.092 52.0354C585.769 52.0354 587.331 51.6305 588.72 50.7628C590.166 49.9529 591.323 48.7381 592.191 47.1183C593.058 45.4986 593.521 43.6474 593.521 41.4492C593.463 39.3667 593 37.5155 592.133 35.8958Z"
        fill="white" />
    <path
        d="M247.069 77.2572V105.313H244.234V92.182H229.02V105.313H226.186V77.2572H229.02V89.868H244.234V77.2572H247.069Z"
        fill="white" />
    <path
        d="M257.077 104.272C255.457 103.347 254.127 102.016 253.201 100.339C252.275 98.6609 251.755 96.6363 251.755 94.3802C251.755 92.1241 252.218 90.0994 253.201 88.4218C254.184 86.7442 255.457 85.4137 257.135 84.4882C258.812 83.5626 260.663 83.0998 262.688 83.0998C264.771 83.0998 266.622 83.5626 268.299 84.4882C269.977 85.4137 271.307 86.7442 272.233 88.4218C273.159 90.0994 273.679 92.1241 273.679 94.3802C273.679 96.6363 273.216 98.6031 272.233 100.339C271.25 102.074 269.919 103.347 268.241 104.272C266.564 105.198 264.713 105.661 262.63 105.661C260.605 105.661 258.754 105.198 257.077 104.272ZM266.68 102.19C267.894 101.553 268.878 100.57 269.688 99.2394C270.44 97.9089 270.845 96.2892 270.845 94.3802C270.845 92.4712 270.497 90.8515 269.745 89.5209C268.993 88.1904 268.01 87.207 266.795 86.5707C265.58 85.9344 264.25 85.5873 262.804 85.5873C261.358 85.5873 260.027 85.9344 258.812 86.5707C257.597 87.207 256.614 88.1904 255.862 89.5209C255.11 90.8515 254.763 92.4712 254.763 94.3802C254.763 96.2892 255.11 97.9089 255.862 99.2394C256.614 100.57 257.597 101.553 258.812 102.19C260.027 102.826 261.358 103.173 262.804 103.173C264.076 103.173 265.465 102.884 266.68 102.19Z"
        fill="white" />
    <path
        d="M279.811 103.867C278.191 102.71 277.324 101.091 277.15 99.1237H280.042C280.158 100.339 280.737 101.322 281.778 102.132C282.819 102.884 284.207 103.289 285.943 103.289C287.447 103.289 288.662 102.942 289.53 102.19C290.397 101.495 290.86 100.57 290.86 99.5287C290.86 98.7766 290.629 98.1403 290.166 97.6775C289.703 97.2147 289.067 96.8098 288.315 96.5206C287.563 96.2313 286.579 95.9421 285.307 95.595C283.687 95.1901 282.356 94.7273 281.315 94.3223C280.274 93.9174 279.464 93.2811 278.712 92.4134C278.018 91.5456 277.671 90.4465 277.671 89.0003C277.671 87.959 278.018 86.9178 278.654 86.0501C279.29 85.1245 280.216 84.4303 281.373 83.9097C282.53 83.3891 283.86 83.0998 285.364 83.0998C287.736 83.0998 289.645 83.6783 291.034 84.8931C292.48 86.1079 293.232 87.7277 293.347 89.8102H290.513C290.455 88.5375 289.934 87.4963 289.009 86.6864C288.083 85.8765 286.811 85.5294 285.191 85.5294C283.745 85.5294 282.646 85.8765 281.72 86.5129C280.852 87.207 280.39 88.0169 280.39 89.0003C280.39 89.868 280.679 90.5622 281.199 91.0828C281.72 91.6035 282.356 92.0663 283.166 92.3555C283.918 92.6447 284.96 92.9918 286.29 93.3968C287.852 93.8017 289.125 94.2645 290.05 94.6694C290.976 95.0744 291.786 95.6528 292.48 96.4627C293.174 97.2147 293.521 98.256 293.521 99.5287C293.521 100.686 293.174 101.727 292.538 102.652C291.901 103.578 290.976 104.33 289.877 104.851C288.72 105.371 287.389 105.661 285.885 105.661C283.455 105.661 281.373 105.082 279.811 103.867Z"
        fill="white" />
    <path
        d="M304.57 84.546C306.074 83.5626 307.867 83.0998 309.95 83.0998C311.917 83.0998 313.71 83.5626 315.33 84.4882C316.949 85.4137 318.164 86.7442 319.032 88.4218C319.9 90.0994 320.363 92.0663 320.363 94.3223C320.363 96.5784 319.9 98.5452 319.032 100.281C318.164 102.016 316.892 103.289 315.33 104.272C313.71 105.198 311.975 105.661 309.95 105.661C307.867 105.661 306.074 105.198 304.57 104.214C303.066 103.231 301.909 102.016 301.215 100.57V115.668H298.496V83.3891H301.273V88.1904C301.967 86.7442 303.066 85.5294 304.57 84.546ZM316.487 89.6366C315.793 88.3061 314.809 87.3227 313.594 86.6285C312.379 85.9344 310.991 85.5873 309.429 85.5873C307.925 85.5873 306.537 85.9344 305.322 86.6864C304.049 87.3806 303.124 88.4218 302.372 89.7523C301.678 91.0828 301.273 92.6447 301.273 94.3802C301.273 96.1156 301.62 97.6775 302.372 99.008C303.066 100.339 304.049 101.38 305.322 102.074C306.537 102.768 307.925 103.173 309.429 103.173C310.991 103.173 312.379 102.826 313.594 102.132C314.809 101.438 315.793 100.396 316.487 99.0659C317.181 97.7354 317.528 96.1156 317.528 94.3802C317.528 92.529 317.181 90.9093 316.487 89.6366Z"
        fill="white" />
    <path
        d="M325.106 78.7034C324.701 78.2984 324.528 77.8356 324.528 77.1993C324.528 76.6208 324.701 76.1002 325.106 75.7531C325.511 75.3482 325.974 75.1746 326.552 75.1746C327.131 75.1746 327.594 75.3482 327.998 75.7531C328.403 76.158 328.577 76.6208 328.577 77.1993C328.577 77.7778 328.403 78.2984 327.998 78.7034C327.594 79.1083 327.131 79.2818 326.552 79.2818C326.032 79.2818 325.511 79.1083 325.106 78.7034ZM327.998 83.3891V105.313H325.164V83.3891H327.998Z"
        fill="white" />
    <path
        d="M334.015 88.4218C334.94 86.7442 336.155 85.4137 337.775 84.4882C339.395 83.5626 341.188 83.0998 343.27 83.0998C345.989 83.0998 348.187 83.794 349.923 85.1245C351.658 86.455 352.815 88.3061 353.336 90.5622H350.328C349.981 89.0003 349.171 87.7277 347.898 86.8599C346.683 85.9922 345.122 85.5294 343.27 85.5294C341.824 85.5294 340.494 85.8765 339.279 86.5129C338.122 87.207 337.196 88.1904 336.502 89.5209C335.808 90.8515 335.461 92.4712 335.461 94.3802C335.461 96.2892 335.808 97.9089 336.502 99.2973C337.196 100.628 338.122 101.611 339.279 102.305C340.436 103 341.766 103.289 343.27 103.289C345.122 103.289 346.683 102.826 347.898 101.958C349.171 101.091 349.923 99.8179 350.328 98.1982H353.336C352.815 100.454 351.716 102.248 349.923 103.636C348.13 105.024 345.931 105.661 343.27 105.661C341.188 105.661 339.395 105.198 337.775 104.272C336.155 103.347 334.94 102.016 334.015 100.339C333.089 98.6609 332.626 96.6363 332.626 94.3802C332.684 92.0663 333.089 90.0994 334.015 88.4218Z"
        fill="white" />
    <path
        d="M377.863 95.4214H359.699C359.757 97.099 360.162 98.4874 360.914 99.7022C361.608 100.859 362.592 101.785 363.749 102.363C364.906 102.942 366.236 103.289 367.624 103.289C369.418 103.289 370.98 102.826 372.194 101.958C373.409 101.091 374.277 99.8758 374.682 98.3717H377.632C377.111 100.512 375.955 102.248 374.219 103.636C372.484 104.966 370.285 105.661 367.624 105.661C365.542 105.661 363.691 105.198 362.071 104.272C360.451 103.347 359.179 102.016 358.253 100.339C357.327 98.6609 356.865 96.6363 356.865 94.3802C356.865 92.1241 357.327 90.0994 358.253 88.4218C359.179 86.6864 360.451 85.4137 362.071 84.4882C363.691 83.5626 365.542 83.0998 367.624 83.0998C369.707 83.0998 371.558 83.5626 373.12 84.4882C374.682 85.4137 375.897 86.6285 376.707 88.1326C377.574 89.6945 377.979 91.3721 377.979 93.2232C377.979 94.2066 377.921 94.9587 377.863 95.4214ZM374.103 89.0003C373.409 87.8434 372.484 86.9756 371.327 86.3971C370.17 85.8187 368.839 85.5294 367.451 85.5294C365.368 85.5294 363.575 86.2236 362.129 87.5541C360.683 88.8846 359.815 90.7936 359.699 93.2232H375.087C375.145 91.5456 374.798 90.1573 374.103 89.0003Z"
        fill="white" />
</svg>